<svg width="426" height="64" viewBox="0 0 426 64" fill="none" xmlns="http://www.w3.org/2000/svg">
<rect width="64" height="64" fill="#F58D32"/>
<path d="M31 15H19.3125C18.5876 15 18 15.5876 18 16.3125V48.6875C18 49.4124 18.5876 50 19.3125 50H44.6875C45.4124 50 46 49.4124 46 48.6875V30H31V15Z" fill="#FDFDFC"/>
<path d="M44.5645 27.0354L33.9583 16.4292V27.0354H44.5645Z" fill="#FDFDFC"/>
<path d="M103.659 7.625H96V55.5535H118.046V48.5012H103.659V7.625Z" fill="white"/>
<path d="M145.087 27.9603C144.109 26.3627 142.722 25.1079 140.924 24.1946C139.126 23.2817 137.316 22.8251 135.496 22.8251C133.141 22.8251 130.988 23.2703 129.035 24.1602C127.08 25.0501 125.404 26.2723 124.006 27.8235C122.607 29.3757 121.519 31.1675 120.742 33.1978C119.964 35.2297 119.576 37.3643 119.576 39.6003C119.576 41.8831 119.964 44.0283 120.742 46.0362C121.519 48.0455 122.607 49.8258 124.006 51.377C125.404 52.9292 127.08 54.15 129.035 55.0399C130.988 55.9298 133.141 56.375 135.496 56.375C137.316 56.375 139.126 55.9183 140.924 55.0059C142.722 54.0936 144.11 52.8383 145.087 51.2402V55.5539H152.346V23.6471H145.087V27.9603ZM144.421 43.5027C143.977 44.7355 143.355 45.8081 142.556 46.7209C141.756 47.6342 140.791 48.3644 139.659 48.912C138.526 49.46 137.271 49.7335 135.895 49.7335C134.518 49.7335 133.275 49.46 132.165 48.912C131.054 48.364 130.1 47.6342 129.301 46.7209C128.502 45.8081 127.891 44.7355 127.469 43.5027C127.047 42.2705 126.837 40.9693 126.837 39.6003C126.837 38.2307 127.047 36.9296 127.469 35.6973C127.89 34.465 128.502 33.3929 129.301 32.4796C130.1 31.5672 131.055 30.8361 132.165 30.2886C133.275 29.7406 134.518 29.467 135.895 29.467C137.271 29.467 138.526 29.7406 139.659 30.2886C140.791 30.8366 141.756 31.5672 142.556 32.4796C143.355 33.3929 143.977 34.465 144.421 35.6973C144.864 36.9296 145.087 38.2307 145.087 39.6003C145.087 40.9693 144.864 42.2705 144.421 43.5027Z" fill="white"/>
<path d="M204.099 27.9603C203.121 26.3627 201.734 25.1079 199.936 24.1946C198.138 23.2817 196.328 22.8251 194.508 22.8251C192.153 22.8251 190.001 23.2703 188.047 24.1602C186.093 25.0501 184.417 26.2723 183.018 27.8235C181.619 29.3757 180.531 31.1675 179.754 33.1978C178.977 35.2297 178.589 37.3643 178.589 39.6003C178.589 41.8831 178.977 44.0283 179.754 46.0362C180.531 48.0455 181.619 49.8258 183.018 51.377C184.417 52.9292 186.092 54.15 188.047 55.0399C190 55.9298 192.153 56.375 194.508 56.375C196.328 56.375 198.138 55.9183 199.936 55.0059C201.734 54.0936 203.122 52.8383 204.099 51.2402V55.5539H211.359V23.6471H204.099V27.9603ZM203.433 43.5027C202.988 44.7355 202.367 45.8081 201.568 46.7209C200.768 47.6342 199.803 48.3644 198.67 48.912C197.538 49.46 196.283 49.7335 194.907 49.7335C193.53 49.7335 192.286 49.46 191.177 48.912C190.066 48.364 189.112 47.6342 188.313 46.7209C187.513 45.8081 186.903 44.7355 186.481 43.5027C186.058 42.2705 185.849 40.9693 185.849 39.6003C185.849 38.2307 186.058 36.9296 186.481 35.6973C186.902 34.465 187.513 33.3929 188.313 32.4796C189.112 31.5672 190.067 30.8361 191.177 30.2886C192.286 29.7406 193.53 29.467 194.907 29.467C196.283 29.467 197.538 29.7406 198.67 30.2886C199.803 30.8366 200.768 31.5672 201.568 32.4796C202.367 33.3929 202.988 34.465 203.433 35.6973C203.876 36.9296 204.099 38.2307 204.099 39.6003C204.099 40.9693 203.876 42.2705 203.433 43.5027Z" fill="white"/>
<path d="M291 7.625H283.741V55.5535H291V7.625Z" fill="white"/>
<path d="M158.075 55.5535H165.335V30.9901H177.79V23.6471H158.075V55.5535Z" fill="white"/>
<path d="M240.465 23.6471L231.34 48.0804L222.216 23.6471H214.862L226.778 55.5535H235.902L247.818 23.6471H240.465Z" fill="white"/>
<path d="M263.652 22.8265C254.762 22.8265 247.725 30.3369 247.725 39.6007C247.725 49.8416 254.536 56.375 264.582 56.375C270.205 56.375 273.795 54.1648 278.181 49.3514L273.276 45.4504C273.273 45.4542 269.574 50.4469 264.051 50.4469C257.631 50.4469 254.928 45.1262 254.928 42.3733H279.013C280.278 31.8326 273.537 22.8265 263.652 22.8265ZM254.947 36.8278C255.003 36.2138 255.839 28.7541 263.594 28.7541C271.349 28.7541 272.291 36.2128 272.345 36.8278H254.947Z" fill="white"/>
<path fill-rule="evenodd" clip-rule="evenodd" d="M348.724 22.9243C351.915 22.9244 354.687 23.6381 357.039 25.0659C359.433 26.4939 361.281 28.4473 362.583 30.9253C363.927 33.4033 364.6 36.2597 364.6 39.4937C364.6 42.6855 363.927 45.5626 362.583 48.1245C361.281 50.6444 359.433 52.6389 357.039 54.1089C354.687 55.5788 351.915 56.3139 348.724 56.314C345.574 56.314 342.801 55.5789 340.407 54.1089C338.013 52.6389 336.144 50.6445 334.8 48.1245C333.498 45.5626 332.848 42.6855 332.848 39.4937C332.848 36.2597 333.519 33.4033 334.863 30.9253C336.207 28.4473 338.055 26.4939 340.407 25.0659C342.801 23.638 345.574 22.9243 348.724 22.9243ZM348.724 27.2085C345.532 27.2085 342.949 28.3215 340.975 30.5474C339.001 32.7733 338.013 35.7342 338.013 39.4302C338.013 41.908 338.454 44.092 339.336 45.9819C340.218 47.8719 341.457 49.3636 343.053 50.4556C344.691 51.5056 346.582 52.0308 348.724 52.0308C350.907 52.0307 352.798 51.5055 354.394 50.4556C355.989 49.3636 357.228 47.8719 358.11 45.9819C358.992 44.092 359.434 41.908 359.434 39.4302C359.434 35.7344 358.446 32.7733 356.473 30.5474C354.541 28.3215 351.957 27.2086 348.724 27.2085Z" fill="#A1A09A"/>
<path fill-rule="evenodd" clip-rule="evenodd" d="M409.661 22.9243C412.853 22.9244 415.625 23.6381 417.977 25.0659C420.371 26.4939 422.219 28.4473 423.521 30.9253C424.865 33.4033 425.537 36.2597 425.537 39.4937C425.537 42.6855 424.864 45.5626 423.521 48.1245C422.219 50.6444 420.37 52.6389 417.977 54.1089C415.625 55.5788 412.853 56.3139 409.661 56.314C406.511 56.314 403.739 55.5789 401.345 54.1089C398.951 52.6389 397.081 50.6445 395.737 48.1245C394.435 45.5626 393.785 42.6855 393.785 39.4937C393.785 36.2597 394.457 33.4033 395.801 30.9253C397.145 28.4473 398.993 26.4939 401.345 25.0659C403.739 23.638 406.511 22.9243 409.661 22.9243ZM409.661 27.2085C406.469 27.2085 403.886 28.3215 401.912 30.5474C399.938 32.7733 398.95 35.7342 398.95 39.4302C398.95 41.908 399.392 44.092 400.273 45.9819C401.155 47.8719 402.394 49.3636 403.99 50.4556C405.628 51.5056 407.519 52.0308 409.661 52.0308C411.845 52.0307 413.735 51.5055 415.331 50.4556C416.927 49.3636 418.166 47.8719 419.048 45.9819C419.93 44.092 420.371 41.908 420.371 39.4302C420.371 35.7344 419.384 32.7733 417.41 30.5474C415.478 28.3215 412.895 27.2086 409.661 27.2085Z" fill="#A1A09A"/>
<path d="M375.198 55.687H370.158V10.3267H375.198V55.687Z" fill="#A1A09A"/>
<path d="M388.333 55.687H383.293V23.5571H388.333V55.687Z" fill="#A1A09A"/>
<path d="M331.854 7.68604V12.2222H308.166V29.0435H328.09V33.5786H308.166V55.686H303V7.68604H331.854Z" fill="#A1A09A"/>
<path d="M388.711 16.2485H382.915V10.3267H388.711V16.2485Z" fill="#A1A09A"/>
</svg>
