<svg xmlns="http://www.w3.org/2000/svg" xmlns:xlink="http://www.w3.org/1999/xlink" viewBox="0 0 472 100">
    <title>laravel folio logo</title>
    <circle fill="white" cx="50" cy="50" r="50"/>
    <circle id="b" fill="#4f46e5" cx="50" cy="50" r="48"/>
    <clipPath id="a"><use xlink:href="#b"/></clipPath>
    <g clip-path="url(#a)">
        <rect fill="#818cf8" x="23" y="24" width="58" height="78"/>
        <polygon fill="#f7f8ff" points="74.5,109 16.5,109 16.5,31 54.5,31 74.5,51"/>
        <polygon fill="#c7d2ff" points="74.5,51 54.5,51 54.5,31"/>
    </g>
    <path fill="white" d="M320.1,61.8l0.2-1.8c0.7-5.7-0.9-11.2-4.4-15.1c-3.2-3.6-7.7-5.6-12.6-5.6c-9.7,0-17.5,8-17.5,17.8 c0,10.7,7.4,17.8,18.4,17.8c6.6,0,10.5-2.8,14.7-7.3l1.5-1.6l-5.6-4.3H320.1z M303.3,48.9c3.6,0,5.2,2,5.9,3.6h-11.8 C298.1,50.9,299.7,48.9,303.3,48.9z M303.7,65.4c-3.5,0-5.4-1.9-6.3-3.6h13.4C310,62.7,307.3,65.4,303.7,65.4z M185.8,41.5 c-0.4-0.2-0.8-0.4-1.2-0.6c-2-1-4.1-1.5-6.2-1.5c-2.6,0-5,0.5-7.1,1.4c-2.1,0.9-4,2.3-5.6,3.9c-1.5,1.6-2.7,3.6-3.6,5.7 c-0.8,2.1-1.3,4.4-1.3,6.8c0,2.2,0.4,4.4,1.1,6.4h-12.6V25H138v49.2h25.5v-7.8c0.7,1.1,1.4,2.2,2.3,3.2c1.5,1.7,3.4,3,5.6,3.9 c2.1,0.9,4.5,1.4,7.1,1.4c2.1,0,4.2-0.5,6.2-1.5c0.4-0.2,0.8-0.4,1.2-0.7v1.4h11.1V40.1h-11.1V41.5z M185.3,60.2 c-0.3,0.9-0.8,1.7-1.4,2.4c-0.6,0.7-1.3,1.2-2.2,1.6c-0.8,0.4-1.8,0.6-2.8,0.6c-1,0-2-0.2-2.8-0.6c-0.9-0.4-1.6-0.9-2.2-1.6 c-0.6-0.7-1.1-1.4-1.4-2.4c-0.3-0.9-0.5-2-0.5-3c0-1.1,0.2-2.1,0.5-3c0.3-0.9,0.8-1.7,1.4-2.4c0.6-0.7,1.3-1.2,2.2-1.6 c0.8-0.4,1.7-0.6,2.8-0.6c1.1,0,2,0.2,2.8,0.6c0.9,0.4,1.6,0.9,2.2,1.6c0.6,0.7,1.1,1.5,1.4,2.4c0.3,0.9,0.5,1.9,0.5,3 C185.8,58.2,185.7,59.2,185.3,60.2z M332,25v49.2h-11.1V25H332z M279.4,40.1l-7.5,19.5l-7.5-19.5h-10h-1.5h-9.6v1.4 c-0.4-0.2-0.8-0.4-1.2-0.6c-2-1-4.1-1.5-6.2-1.5c-2.6,0-5,0.5-7.1,1.4c-2.1,0.9-4,2.3-5.6,3.9c-0.6,0.6-1.1,1.3-1.6,2.1v-6.6h-23.2 v34.1h11.1V51h10c-0.7,2-1.1,4-1.1,6.1c0,2.4,0.4,4.7,1.3,6.8c0.8,2.1,2,4,3.6,5.7c1.5,1.7,3.4,3,5.6,3.9c2.2,0.9,4.5,1.4,7.1,1.4 c2.1,0,4.2-0.5,6.2-1.5c0.4-0.2,0.8-0.4,1.2-0.7v1.4h11.1V44l11.7,30.2h11.6l13.2-34.1H279.4z M242.8,60.2c-0.3,0.9-0.8,1.7-1.4,2.4 c-0.6,0.7-1.3,1.2-2.2,1.6c-0.8,0.4-1.8,0.6-2.8,0.6c-1,0-2-0.2-2.8-0.6c-0.9-0.4-1.6-0.9-2.2-1.6c-0.6-0.7-1.1-1.4-1.4-2.4 c-0.3-0.9-0.5-2-0.5-3c0-1.1,0.2-2.1,0.5-3c0.3-0.9,0.8-1.7,1.4-2.4c0.6-0.7,1.3-1.2,2.2-1.6c0.8-0.4,1.7-0.6,2.8-0.6 c1,0,2,0.2,2.8,0.6c0.9,0.4,1.6,0.9,2.2,1.6c0.6,0.7,1.1,1.5,1.4,2.4c0.3,0.9,0.5,1.9,0.5,3C243.3,58.2,243.2,59.2,242.8,60.2z"/>
    <path d="M147.5,65.6h14v6.7H140V27h7.5V65.6z M187.8,42.1h7.1v30.1h-7.1v-4.1c-1,1.5-2.3,2.7-4.1,3.6c-1.8,0.9-3.5,1.3-5.3,1.3 c-2.3,0-4.4-0.4-6.3-1.3c-1.9-0.8-3.5-2-4.9-3.5c-1.4-1.5-2.4-3.1-3.2-5c-0.8-1.9-1.1-3.9-1.1-6.1c0-2.1,0.4-4.1,1.1-6 c0.8-1.9,1.8-3.6,3.2-5.1c1.4-1.5,3-2.6,4.9-3.5c1.9-0.8,4-1.3,6.3-1.3c1.8,0,3.5,0.4,5.3,1.3c1.8,0.9,3.1,2,4.1,3.6V42.1z M187.8,57.2c0-1.3-0.2-2.5-0.6-3.7c-0.4-1.2-1-2.2-1.8-3c-0.8-0.9-1.7-1.6-2.8-2.1c-1.1-0.5-2.3-0.8-3.7-0.8 c-1.3,0-2.6,0.3-3.6,0.8c-1.1,0.5-2,1.2-2.8,2.1c-0.8,0.9-1.4,1.9-1.8,3c-0.4,1.2-0.6,2.4-0.6,3.7c0,1.3,0.2,2.5,0.6,3.7 c0.4,1.2,1,2.2,1.8,3c0.8,0.9,1.7,1.6,2.8,2.1c1.1,0.5,2.3,0.8,3.6,0.8c1.3,0,2.6-0.3,3.7-0.8c1.1-0.5,2-1.2,2.8-2.1 c0.8-0.9,1.4-1.9,1.8-3C187.6,59.7,187.8,58.5,187.8,57.2z M245.3,42.1h7.1v30.1h-7.1v-4.1c-1,1.5-2.3,2.7-4.1,3.6 c-1.8,0.9-3.5,1.3-5.3,1.3c-2.3,0-4.4-0.4-6.3-1.3c-1.9-0.8-3.5-2-4.9-3.5c-1.4-1.5-2.4-3.1-3.2-5c-0.8-1.9-1.1-3.9-1.1-6.1 c0-2.1,0.4-4.1,1.1-6c0.8-1.9,1.8-3.6,3.2-5.1c1.4-1.5,3-2.6,4.9-3.5c1.9-0.8,4-1.3,6.3-1.3c1.8,0,3.5,0.4,5.3,1.3 c1.8,0.9,3.1,2,4.1,3.6V42.1z M245.3,57.2c0-1.3-0.2-2.5-0.6-3.7c-0.4-1.2-1-2.2-1.8-3c-0.8-0.9-1.7-1.6-2.8-2.1 c-1.1-0.5-2.3-0.8-3.7-0.8c-1.3,0-2.6,0.3-3.6,0.8c-1.1,0.5-2,1.2-2.8,2.1c-0.8,0.9-1.4,1.9-1.8,3c-0.4,1.2-0.6,2.4-0.6,3.7 c0,1.3,0.2,2.5,0.6,3.7c0.4,1.2,1,2.2,1.8,3c0.8,0.9,1.7,1.6,2.8,2.1c1.1,0.5,2.3,0.8,3.6,0.8c1.3,0,2.6-0.3,3.7-0.8 c1.1-0.5,2-1.2,2.8-2.1c0.8-0.9,1.4-1.9,1.8-3C245.1,59.7,245.3,58.5,245.3,57.2z M322.9,27v45.2h7.1V27H322.9z M200.5,72.2h7.1V49 h12.1v-6.9h-19.2V72.2z M280.8,42.1l-8.9,23.1L263,42.1h-7.2l11.6,30.1h8.9l11.6-30.1H280.8z M318.3,59.8h-23.5 c0,2.6,2.6,7.6,8.9,7.6c5.4,0,9-4.7,9-4.7l4.8,3.7c-4.3,4.5-7.8,6.6-13.3,6.6c-9.8,0-16.4-6.2-16.4-15.8c0-8.7,6.9-15.8,15.5-15.8 C313,41.3,319.6,49.8,318.3,59.8z M311.8,54.6c-0.1-0.6-1-7.6-8.5-7.6c-7.6,0-8.4,7-8.4,7.6H311.8z"/>
    <path fill="white" d="M405,40.6c-2.5-1.5-5.3-2.3-8.5-2.3c-3.2,0-6.1,0.8-8.6,2.3c-2.5,1.5-4.4,3.7-5.8,6.5c-1.3,2.7-2,5.8-2,9.4 c0,3.5,0.7,6.7,2,9.4c1.3,2.8,3.3,5,5.8,6.5c2.5,1.5,5.4,2.3,8.6,2.3c3.2,0,6-0.8,8.5-2.3c2.5-1.5,4.4-3.7,5.7-6.5 c1.3-2.7,2-5.8,2-9.4c0-3.5-0.7-6.7-2-9.4C409.4,44.3,407.4,42.2,405,40.6z M402.5,64.6c-1.4,1.7-3.4,2.6-6.1,2.6 c-2.7,0-4.7-0.8-6.1-2.5c-1.5-1.8-2.2-4.6-2.2-8.2c0-3.6,0.8-6.3,2.3-8.2c1.4-1.8,3.4-2.6,6.1-2.6c2.6,0,4.6,0.9,6,2.6 c1.5,1.9,2.3,4.6,2.3,8.2C404.8,60.1,404,62.8,402.5,64.6z M357.8,46h21.5v7.4h-21.5v20.7H350V26h30.6v7.3h-22.7V46z M415.7,24.6 h7.7v49.6h-7.7V24.6z M470,47.1c-1.3-2.8-3.3-4.9-5.7-6.5c-2.5-1.5-5.3-2.3-8.5-2.3c-3.2,0-6.1,0.8-8.6,2.3 c-2.5,1.5-4.4,3.7-5.8,6.5c-1.3,2.7-2,5.8-2,9.4c0,3.5,0.7,6.7,2,9.4c1.3,2.8,3.3,5,5.8,6.5c2.5,1.5,5.4,2.3,8.6,2.3 c3.2,0,6-0.8,8.5-2.3c2.5-1.5,4.4-3.7,5.7-6.5c1.3-2.7,2-5.8,2-9.4C472,52.9,471.3,49.8,470,47.1z M461.9,64.6 c-1.4,1.7-3.4,2.6-6.1,2.6s-4.7-0.8-6.1-2.5c-1.5-1.8-2.2-4.6-2.2-8.2c0-3.6,0.8-6.3,2.3-8.2c1.4-1.8,3.4-2.6,6.1-2.6 c2.6,0,4.6,0.9,6,2.6c1.5,1.9,2.3,4.6,2.3,8.2C464.1,60.1,463.3,62.8,461.9,64.6z M428.6,39.1h7.7v35h-7.7V39.1z M428,26.3h9v8.8 h-9V26.3z"/>
    <path d="M352,28h26.6v3.3h-22.7V48h21.5v3.4h-21.5v20.7H352V28z M408.9,48c1.2,2.4,1.8,5.3,1.8,8.5c0,3.2-0.6,6-1.8,8.5 c-1.2,2.4-2.8,4.3-5,5.6c-2.1,1.3-4.6,2-7.4,2c-2.8,0-5.4-0.7-7.5-2c-2.2-1.3-3.8-3.2-5-5.6c-1.2-2.4-1.8-5.3-1.8-8.5 c0-3.2,0.6-6,1.8-8.5c1.2-2.4,2.8-4.3,5-5.6c2.2-1.3,4.7-2,7.5-2c2.8,0,5.3,0.7,7.4,2C406.1,43.7,407.7,45.5,408.9,48z M406.8,56.5 c0-4-0.9-7.2-2.7-9.4c-1.8-2.2-4.3-3.4-7.6-3.4c-3.3,0-5.8,1.1-7.6,3.4c-1.8,2.3-2.7,5.4-2.7,9.4c0,4.1,0.9,7.3,2.7,9.5 c1.8,2.2,4.3,3.3,7.6,3.3c3.3,0,5.9-1.1,7.6-3.3C405.9,63.7,406.8,60.5,406.8,56.5z M417.7,72.1h3.7V26.6h-3.7V72.1z M430.6,72.1 h3.7v-31h-3.7V72.1z M430,33.1h5v-4.8h-5V33.1z M470,56.5c0,3.2-0.6,6-1.8,8.5c-1.2,2.4-2.8,4.3-5,5.6c-2.1,1.3-4.6,2-7.4,2 c-2.8,0-5.4-0.7-7.5-2c-2.2-1.3-3.8-3.2-5-5.6c-1.2-2.4-1.8-5.3-1.8-8.5c0-3.2,0.6-6,1.8-8.5c1.2-2.4,2.8-4.3,5-5.6 c2.2-1.3,4.7-2,7.5-2c2.8,0,5.3,0.7,7.4,2c2.1,1.3,3.8,3.2,5,5.6C469.4,50.4,470,53.2,470,56.5z M466.1,56.5c0-4-0.9-7.2-2.7-9.4 c-1.8-2.2-4.3-3.4-7.6-3.4c-3.3,0-5.8,1.1-7.6,3.4c-1.8,2.3-2.7,5.4-2.7,9.4c0,4.1,0.9,7.3,2.7,9.5c1.8,2.2,4.3,3.3,7.6,3.3 c3.3,0,5.9-1.1,7.6-3.3S466.1,60.5,466.1,56.5z"/>
</svg>
