<svg viewBox="0 0 468 96" xmlns="http://www.w3.org/2000/svg">
    <style>
        #folio { fill: #000 } @media (prefers-color-scheme:dark) { #folio { fill: #fff } }
    </style>
    <path d="M48 96C74.5097 96 96 74.5097 96 48C96 21.4903 74.5097 0 48 0C21.4903 0 0 21.4903 0 48C0 74.5097 21.4903 96 48 96Z" fill="#4F46E5"/>
    <mask id="mask" style="mask-type:luminance" maskUnits="userSpaceOnUse" x="0" y="0" width="96" height="96">
        <path d="M48 96C74.5097 96 96 74.5097 96 48C96 21.4903 74.5097 0 48 0C21.4903 0 0 21.4903 0 48C0 74.5097 21.4903 96 48 96Z" fill="white"/>
    </mask>
    <g mask="url(#mask)">
        <path d="M79 22H21V100H79V22Z" fill="#818CF8"/>
        <path d="M72.5 107H14.5V29H52.5L72.5 49V107Z" fill="#F7F8FF"/>
        <path d="M72.5 49H52.5V29L72.5 49Z" fill="#C7D2FF"/>
    </g>
    <path id="folio" d="M145.5 63.6H159.5V70.3H138V25H145.5V63.6ZM185.8 40.1H192.9V70.2H185.8V66.1C184.8 67.6 183.5 68.8 181.7 69.7C179.9 70.6 178.2 71 176.4 71C174.1 71 172 70.6 170.1 69.7C168.2 68.9 166.6 67.7 165.2 66.2C163.8 64.7 162.8 63.1 162 61.2C161.2 59.3 160.9 57.3 160.9 55.1C160.9 53 161.3 51 162 49.1C162.8 47.2 163.8 45.5 165.2 44C166.6 42.5 168.2 41.4 170.1 40.5C172 39.7 174.1 39.2 176.4 39.2C178.2 39.2 179.9 39.6 181.7 40.5C183.5 41.4 184.8 42.5 185.8 44.1V40.1ZM185.8 55.2C185.8 53.9 185.6 52.7 185.2 51.5C184.8 50.3 184.2 49.3 183.4 48.5C182.6 47.6 181.7 46.9 180.6 46.4C179.5 45.9 178.3 45.6 176.9 45.6C175.6 45.6 174.3 45.9 173.3 46.4C172.2 46.9 171.3 47.6 170.5 48.5C169.7 49.4 169.1 50.4 168.7 51.5C168.3 52.7 168.1 53.9 168.1 55.2C168.1 56.5 168.3 57.7 168.7 58.9C169.1 60.1 169.7 61.1 170.5 61.9C171.3 62.8 172.2 63.5 173.3 64C174.4 64.5 175.6 64.8 176.9 64.8C178.2 64.8 179.5 64.5 180.6 64C181.7 63.5 182.6 62.8 183.4 61.9C184.2 61 184.8 60 185.2 58.9C185.6 57.7 185.8 56.5 185.8 55.2ZM243.3 40.1H250.4V70.2H243.3V66.1C242.3 67.6 241 68.8 239.2 69.7C237.4 70.6 235.7 71 233.9 71C231.6 71 229.5 70.6 227.6 69.7C225.7 68.9 224.1 67.7 222.7 66.2C221.3 64.7 220.3 63.1 219.5 61.2C218.7 59.3 218.4 57.3 218.4 55.1C218.4 53 218.8 51 219.5 49.1C220.3 47.2 221.3 45.5 222.7 44C224.1 42.5 225.7 41.4 227.6 40.5C229.5 39.7 231.6 39.2 233.9 39.2C235.7 39.2 237.4 39.6 239.2 40.5C241 41.4 242.3 42.5 243.3 44.1V40.1ZM243.3 55.2C243.3 53.9 243.1 52.7 242.7 51.5C242.3 50.3 241.7 49.3 240.9 48.5C240.1 47.6 239.2 46.9 238.1 46.4C237 45.9 235.8 45.6 234.4 45.6C233.1 45.6 231.8 45.9 230.8 46.4C229.7 46.9 228.8 47.6 228 48.5C227.2 49.4 226.6 50.4 226.2 51.5C225.8 52.7 225.6 53.9 225.6 55.2C225.6 56.5 225.8 57.7 226.2 58.9C226.6 60.1 227.2 61.1 228 61.9C228.8 62.8 229.7 63.5 230.8 64C231.9 64.5 233.1 64.8 234.4 64.8C235.7 64.8 237 64.5 238.1 64C239.2 63.5 240.1 62.8 240.9 61.9C241.7 61 242.3 60 242.7 58.9C243.1 57.7 243.3 56.5 243.3 55.2ZM320.9 25V70.2H328V25H320.9ZM198.5 70.2H205.6V47H217.7V40.1H198.5V70.2ZM278.8 40.1L269.9 63.2L261 40.1H253.8L265.4 70.2H274.3L285.9 40.1H278.8ZM316.3 57.8H292.8C292.8 60.4 295.4 65.4 301.7 65.4C307.1 65.4 310.7 60.7 310.7 60.7L315.5 64.4C311.2 68.9 307.7 71 302.2 71C292.4 71 285.8 64.8 285.8 55.2C285.8 46.5 292.7 39.4 301.3 39.4C311 39.3 317.6 47.8 316.3 57.8ZM309.8 52.6C309.7 52 308.8 45 301.3 45C293.7 45 292.9 52 292.9 52.6H309.8Z"/>
    <path id="folio" d="M350 26.0001H376.6V29.3001H353.9V46.0001H375.4V49.4001H353.9V70.1001H350V26.0001ZM406.9 46.0001C408.1 48.4001 408.7 51.3001 408.7 54.5001C408.7 57.7001 408.1 60.5001 406.9 63.0001C405.7 65.4001 404.1 67.3001 401.9 68.6001C399.8 69.9001 397.3 70.6001 394.5 70.6001C391.7 70.6001 389.1 69.9001 387 68.6001C384.8 67.3001 383.2 65.4001 382 63.0001C380.8 60.6001 380.2 57.7001 380.2 54.5001C380.2 51.3001 380.8 48.5001 382 46.0001C383.2 43.6001 384.8 41.7001 387 40.4001C389.2 39.1001 391.7 38.4001 394.5 38.4001C397.3 38.4001 399.8 39.1001 401.9 40.4001C404.1 41.7001 405.7 43.5001 406.9 46.0001ZM404.8 54.5001C404.8 50.5001 403.9 47.3001 402.1 45.1001C400.3 42.9001 397.8 41.7001 394.5 41.7001C391.2 41.7001 388.7 42.8001 386.9 45.1001C385.1 47.4001 384.2 50.5001 384.2 54.5001C384.2 58.6001 385.1 61.8001 386.9 64.0001C388.7 66.2001 391.2 67.3001 394.5 67.3001C397.8 67.3001 400.4 66.2001 402.1 64.0001C403.9 61.7001 404.8 58.5001 404.8 54.5001ZM415.7 70.1001H419.4V24.6001H415.7V70.1001ZM428.6 70.1001H432.3V39.1001H428.6V70.1001ZM428 31.1001H433V26.3001H428V31.1001ZM468 54.5001C468 57.7001 467.4 60.5001 466.2 63.0001C465 65.4001 463.4 67.3001 461.2 68.6001C459.1 69.9001 456.6 70.6001 453.8 70.6001C451 70.6001 448.4 69.9001 446.3 68.6001C444.1 67.3001 442.5 65.4001 441.3 63.0001C440.1 60.6001 439.5 57.7001 439.5 54.5001C439.5 51.3001 440.1 48.5001 441.3 46.0001C442.5 43.6001 444.1 41.7001 446.3 40.4001C448.5 39.1001 451 38.4001 453.8 38.4001C456.6 38.4001 459.1 39.1001 461.2 40.4001C463.3 41.7001 465 43.6001 466.2 46.0001C467.4 48.4001 468 51.2001 468 54.5001ZM464.1 54.5001C464.1 50.5001 463.2 47.3001 461.4 45.1001C459.6 42.9001 457.1 41.7001 453.8 41.7001C450.5 41.7001 448 42.8001 446.2 45.1001C444.4 47.4001 443.5 50.5001 443.5 54.5001C443.5 58.6001 444.4 61.8001 446.2 64.0001C448 66.2001 450.5 67.3001 453.8 67.3001C457.1 67.3001 459.7 66.2001 461.4 64.0001C463.1 61.8001 464.1 58.5001 464.1 54.5001Z"/>
</svg>
